<svg width="24" height="23" viewBox="0 0 24 23" fill="none" xmlns="http://www.w3.org/2000/svg">
<path d="M10.216 0.892787C10.3494 0.62479 10.5557 0.399152 10.8116 0.241382C11.0676 0.0836112 11.3629 0 11.6642 0C11.9655 0 12.2609 0.0836112 12.5168 0.241382C12.7727 0.399152 12.9791 0.62479 13.1125 0.892787L15.842 6.37876L21.9454 7.25808C22.2438 7.30077 22.5242 7.42543 22.7548 7.61796C22.9855 7.81049 23.1572 8.0632 23.2506 8.34751C23.3439 8.63182 23.3552 8.93637 23.2832 9.22671C23.2111 9.51705 23.0585 9.78159 22.8427 9.99039L18.4244 14.2624L19.4671 20.2913C19.5178 20.5858 19.4844 20.8886 19.3707 21.1653C19.257 21.442 19.0676 21.6817 18.8238 21.8572C18.58 22.0327 18.2915 22.1371 17.991 22.1586C17.6906 22.1801 17.39 22.1178 17.1234 21.9787L11.6642 19.1343L6.20507 21.9823C5.93813 22.1216 5.63717 22.1841 5.33629 22.1625C5.03541 22.1409 4.74663 22.0362 4.50268 21.8602C4.25873 21.6842 4.06935 21.4439 3.956 21.1666C3.84265 20.8893 3.80985 20.5861 3.86134 20.2913L4.9022 14.2624L0.487504 9.99217C0.271753 9.78348 0.119167 9.51909 0.0469982 9.22888C-0.0251702 8.93867 -0.0140424 8.63423 0.0791233 8.34997C0.172289 8.0657 0.343777 7.81296 0.574197 7.62032C0.804617 7.42768 1.08478 7.30282 1.38301 7.25986L7.48461 6.38054L10.216 0.894566V0.892787Z" fill="#F5BE00"/>
</svg>
